<svg xmlns="http://www.w3.org/2000/svg" width="34" height="56"><path d="m0 0h34v56h-34z" fill="none"/><path d="m17 17.9728c9.9364 0 16.5 7.0762 16.5 17.773 0 4.9269-1.4384 10.3497-3.8522 14.5656-.248.4629-.7275.6283-1.2069.4795-.6944 1.0581-1.8848 1.4549-3.2735 1.0581-1.7194-.5125-2.4965-1.9674-1.984-3.7034l2.4469-8.0516c.5125-1.7029 1.9344-2.48 3.6869-1.9674.8101.248 1.4053.6944 1.769 1.2896.1819-1.24.2645-2.4634.2645-3.6703 0-9.3577-5.7535-15.6237-14.3507-15.6237-8.6137 0-14.3507 6.266-14.3507 15.6237 0 1.2069.0827 2.4304.2645 3.6538.3472-.5787.9424-1.0251 1.7525-1.273 1.7525-.5125 3.1743.2645 3.6869 1.9674l2.4469 8.0516c.5125 1.7194-.2645 3.1909-1.984 3.7034-1.3888.3968-2.5792 0-3.2735-1.0581-.4795.1488-.9589-.0165-1.2069-.4795-2.4138-4.2159-3.8357-9.6388-3.8357-14.5656 0-10.6969 6.5471-17.773 16.5-17.773z" fill="#1d1d1f"/></svg>