<svg xmlns="http://www.w3.org/2000/svg" width="82" height="56"><path d="M0 0h82v56H0z" fill="none"/><path d="M82 11.5v31a1.5 1.5 0 0 1-1.5 1.5H51v-6h29.5V12a.5.5 0 0 0-.5-.5H34a.5.5 0 0 0-.5.5v11H32V11.5a1.5 1.5 0 0 1 1.5-1.5h47a1.5 1.5 0 0 1 1.5 1.5zM51 48h4v2.212c0 .736-.345 1.372-.882 1.788H63v-7.5H51zm-1 1V26a2 2 0 0 0-2-2H14a2 2 0 0 0-2 2v18h1.5V26a.5.5 0 0 1 .5-.5h14.5v.06c0 .52.42.94.94.94h2.62a.94.94 0 0 0 .94-.94v-.06h15a.5.5 0 0 1 .5.5v23H19v1.412c0 .422-.168.803-.437 1.088H47l.214.5h2.572l.214-.5h2.657c.742 0 1.343-.546 1.343-1.288V49zM0 45h18v5.412a.588.588 0 0 1-.588.588H17l-1 1H2l-1-1H.588A.588.588 0 0 1 0 50.412zm13 4.875a.625.625 0 1 0 1.25 0 .625.625 0 0 0-1.25 0z" fill="#1d1d1f"/></svg>