<svg xmlns="http://www.w3.org/2000/svg" width="106" height="56"><path d="m0 0h106v56h-106z" fill="none"/><path d="m23.9924 41h54.0151c.5481 0 .9924-.4444.9924-.9926v-31.0149c0-.5482-.4443-.9925-.9924-.9925h-54.0151c-.5481 0-.9924.4443-.9924.9925v31.015c0 .5482.4443.9926.9924.9926zm.5076-31.5h53v30h-53zm28.375 32h5.125v10.5h-14v-10.5h5.125v.25c0 .9665.7834 1.75 1.75 1.75h.25c.9666 0 1.75-.7835 1.75-1.75zm53.125 8.5v.5c0 .5522-.4478 1-1 1h-2l-.2859.5h-3.4282l-.2859-.5h-30l-.2859.5h-3.4282l-.2859-.5h-2c-.5522 0-1-.4478-1-1v-.5h4v-8.0148h1.4855v8.0148h33.0291v-22.0193c0-.273-.2222-.4952-.4952-.4952h-13.7693v.0145c0 .5522-.4478 1-1 1h-2.5c-.5522 0-1-.4478-1-1v-.0145h-1.7648v-1.4855h20.0341c1.094 0 1.9807.8868 1.9807 1.9807v22.0193h4zm-83.9852-9.9926v-14.0074h-20.0148c-1.1046 0-2 .8954-2 2v22c0 1.1046.8954 2 2 2h32c1.1046 0 2-.8954 2-2v-8.0148h-12.0074c-1.0923 0-1.9778-.8855-1.9778-1.9778zm-2.9332-4.23v.0588c0 .139-.0305.2799-.0874.4211-.0578.1398-.1315.265-.2292.3745-.0959.1125-.2033.1999-.3251.265-.12.0664-.2432.0979-.3682.0979-.0516 0-.0778-.0073-.081-.0293-.0012-.0148-.0012-.0412-.0012-.0799 0-.1358.0305-.2694.0895-.4062.0609-.1347.1367-.2598.2388-.3725.0957-.1052.2113-.1978.3439-.2694.1316-.0704.2704-.1062.4114-.1146.0065.02.0085.0379.0085.0547zm.9562 4.3891c-.0653.1284-.1315.2515-.2.3587-.0726.1105-.142.2094-.2061.2926-.0704.083-.1263.142-.1631.1829-.0757.0631-.1505.1178-.2303.1579-.0748.0409-.1546.0566-.2388.0566-.0535 0-.1188-.0114-.1937-.0336-.0778-.023-.1546-.0474-.2346-.0736-.081-.0263-.1621-.0494-.2419-.0756-.0841-.0211-.1545-.0317-.2209-.0317-.0714 0-.1514.0106-.2336.0368-.0861.0233-.1703.0496-.2535.077-.0863.0282-.1661.0515-.2356.0756-.0706.0211-.1347.0325-.1778.0325-.0694 0-.1303-.0114-.1904-.0325-.0622-.0241-.1262-.0632-.1935-.1158-.0673-.0536-.1337-.1251-.2073-.2157-.0767-.0894-.1587-.1989-.2493-.3335-.0852-.124-.158-.2609-.2314-.4081-.0675-.1506-.1317-.3031-.1799-.4651-.0475-.1577-.0876-.3165-.1127-.4796-.0276-.162-.0453-.3178-.0453-.4715 0-.2355.0339-.4544.1031-.6554.0694-.1986.1673-.3755.2893-.5208.1231-.1493.2641-.2609.4261-.3428.1609-.0791.3386-.12.5292-.12.141 0 .3072.0409.4988.12.1882.0819.3185.123.3945.123.0263 0 .0725-.0116.1376-.0368.0685-.0241.1705-.0588.2978-.1073.1262-.0431.223-.0736.2978-.0904.0757-.0168.1524-.0263.2312-.0263.2127 0 .4095.0505.603.1526.1893.1.3418.2325.4525.4007-.2042.1232-.3536.2704-.4473.443-.0893.1694-.1356.3734-.1356.6039 0 .2419.0621.4617.1915.6617.1262.201.305.3536.5345.4544-.0453.1379-.1011.2758-.1642.4062z" fill="#1d1d1f"/></svg>